<svg width="28" height="29" viewBox="0 0 28 29" fill="none" xmlns="http://www.w3.org/2000/svg">
<g id="instagram 2">
<path id="Vector" d="M19.8333 2.7063H8.16659C4.94492 2.7063 2.33325 5.34636 2.33325 8.60304V20.3965C2.33325 23.6532 4.94492 26.2933 8.16659 26.2933H19.8333C23.0549 26.2933 25.6666 23.6532 25.6666 20.3965V8.60304C25.6666 5.34636 23.0549 2.7063 19.8333 2.7063Z" stroke="white" stroke-width="2" stroke-linecap="round" stroke-linejoin="round"/>
<path id="Vector_2" d="M18.6667 13.7568C18.8106 14.7383 18.6448 15.7407 18.1927 16.6214C17.7406 17.5021 17.0253 18.2164 16.1485 18.6625C15.2718 19.1086 14.2782 19.2638 13.3091 19.1062C12.34 18.9486 11.4447 18.486 10.7506 17.7844C10.0566 17.0828 9.599 16.1778 9.44306 15.1982C9.28712 14.2185 9.44073 13.2141 9.88203 12.3278C10.3233 11.4415 11.0299 10.7185 11.9011 10.2615C12.7724 9.80446 13.764 9.63681 14.735 9.78235C15.7254 9.93082 16.6423 10.3973 17.3503 11.113C18.0583 11.8287 18.5198 12.7556 18.6667 13.7568Z" stroke="white" stroke-width="2" stroke-linecap="round" stroke-linejoin="round"/>
<path id="Vector_3" d="M20.4167 8.01343H20.4284" stroke="white" stroke-width="2" stroke-linecap="round" stroke-linejoin="round"/>
</g>
</svg>
