<svg width="28" height="29" viewBox="0 0 28 29" fill="none" xmlns="http://www.w3.org/2000/svg">
<g id="linkedin 2">
<path id="Vector" d="M18.6667 9.66663C20.5233 9.66663 22.3037 10.4305 23.6165 11.7901C24.9293 13.1497 25.6668 14.9938 25.6668 16.9166V25.375H21.0001V16.9166C21.0001 16.2757 20.7542 15.661 20.3167 15.2078C19.8791 14.7546 19.2856 14.5 18.6667 14.5C18.0479 14.5 17.4544 14.7546 17.0168 15.2078C16.5792 15.661 16.3334 16.2757 16.3334 16.9166V25.375H11.6667V16.9166C11.6667 14.9938 12.4042 13.1497 13.717 11.7901C15.0298 10.4305 16.8102 9.66663 18.6667 9.66663V9.66663Z" stroke="white" stroke-width="2" stroke-linecap="round" stroke-linejoin="round"/>
<path id="Vector_2" d="M6.99992 10.875H2.33325V25.375H6.99992V10.875Z" stroke="white" stroke-width="2" stroke-linecap="round" stroke-linejoin="round"/>
<path id="Vector_3" d="M4.66659 7.24996C5.95525 7.24996 6.99992 6.16798 6.99992 4.83329C6.99992 3.4986 5.95525 2.41663 4.66659 2.41663C3.37792 2.41663 2.33325 3.4986 2.33325 4.83329C2.33325 6.16798 3.37792 7.24996 4.66659 7.24996Z" stroke="white" stroke-width="2" stroke-linecap="round" stroke-linejoin="round"/>
</g>
</svg>
