<svg width="56" height="56" viewBox="0 0 56 56" fill="none" xmlns="http://www.w3.org/2000/svg">
<g id="rocket-24">
<path id="Union" fill-rule="evenodd" clip-rule="evenodd" d="M47.4169 1.75C41.0223 1.75 34.8692 4.19223 30.2152 8.5775L27.1713 11.4456C25.914 12.6303 24.7138 13.8722 23.5743 15.167H11.8211C10.3868 15.167 9.05764 15.9195 8.31968 17.1494L1.99939 27.6833C1.7082 28.1686 1.6697 28.7648 1.89605 29.2835C2.1224 29.8022 2.58565 30.1795 3.13948 30.2961L13.8068 32.5418C13.897 32.6567 13.9969 32.7661 14.1062 32.8687L18.7635 37.2393L23.1314 41.8939C23.2341 42.0033 23.3435 42.1032 23.4585 42.1935L25.7042 52.8608C25.8208 53.4146 26.1981 53.8779 26.7168 54.1042C27.2355 54.3306 27.8317 54.2921 28.317 54.0009L38.8509 47.6806C40.0808 46.9427 40.8333 45.6135 40.8333 44.1792V32.4251C42.1287 31.285 43.3711 30.0841 44.5562 28.8261L47.4217 25.7843C51.8076 21.1287 54.2492 14.9734 54.2474 8.57724L54.2466 5.83214C54.2459 3.57744 52.4179 1.75 50.1632 1.75H47.4169ZM37.3333 35.2618C36.5571 35.8402 35.7655 36.3986 34.9591 36.9361L27.0398 42.2156L28.623 49.7357L37.0501 44.6794C37.2258 44.574 37.3333 44.3841 37.3333 44.1792V35.2618ZM13.7844 28.9604L19.0656 21.0386C19.6026 20.2331 20.1603 19.4423 20.738 18.667H11.8211C11.6162 18.667 11.4263 18.7745 11.3209 18.9502L6.26464 27.3773L13.7844 28.9604ZM32.6154 11.1248C36.62 7.35145 41.9146 5.25 47.4169 5.25H50.1632C50.4853 5.25 50.7465 5.51106 50.7466 5.83316L50.7474 8.57827C50.749 14.0819 48.648 19.3783 44.8741 23.3844L42.0086 26.4261C39.3094 29.2914 36.293 31.8404 33.0176 34.024L25.3456 39.1387L21.2777 34.8038C21.2523 34.7768 21.2261 34.7505 21.1991 34.7252L16.8615 30.6545L21.9778 22.9801C24.1603 19.7063 26.7079 16.6912 29.5715 13.9929L32.6154 11.1248ZM40.8333 18.6667C40.8333 20.5997 39.2663 22.1667 37.3333 22.1667C35.4003 22.1667 33.8333 20.5997 33.8333 18.6667C33.8333 16.7337 35.4003 15.1667 37.3333 15.1667C39.2663 15.1667 40.8333 16.7337 40.8333 18.6667ZM15.1666 49C17.2662 46.9004 17.2663 42.9331 15.1667 40.8334C13.0671 38.7338 9.09958 38.7338 6.99995 40.8334C4.17943 43.6539 3.62831 49.9363 3.52372 51.9009C3.5062 52.23 3.77002 52.4938 4.09907 52.4762C6.0638 52.3715 12.3466 51.8201 15.1666 49Z" fill="#BDBDBD"/>
</g>
</svg>
