<svg width="56" height="56" viewBox="0 0 56 56" fill="none" xmlns="http://www.w3.org/2000/svg">
<g id="shield-check-24">
<g id="Union">
<path d="M38.5709 22.8208C39.2543 22.1374 39.2543 21.0293 38.5709 20.3459C37.8874 19.6625 36.7794 19.6625 36.096 20.3459L25.6667 30.7751L21.0709 26.1792C20.3874 25.4958 19.2794 25.4958 18.596 26.1792C17.9126 26.8627 17.9126 27.9707 18.596 28.6541L24.4293 34.4875C25.1127 35.1709 26.2208 35.1709 26.9042 34.4875L38.5709 22.8208Z" fill="#E0E0E0"/>
<path fill-rule="evenodd" clip-rule="evenodd" d="M29.2598 1.48549C28.441 1.21993 27.5592 1.21992 26.7404 1.48549L7.49035 7.72873C5.80885 8.27409 4.66675 9.83862 4.66675 11.6105V23.3333C4.66676 37.7751 13.4653 48.3114 26.6024 53.2684C27.5023 53.608 28.4979 53.608 29.3978 53.2684C42.5349 48.3114 51.3334 37.7751 51.3334 23.3333V11.6112C51.3334 9.83986 50.1919 8.27427 48.5098 7.72873L29.2598 1.48549ZM27.8201 4.81477C27.9371 4.77683 28.0631 4.77683 28.18 4.81477L47.43 11.058C47.672 11.1365 47.8334 11.3599 47.8334 11.6112V23.3333C47.8334 36.0765 40.1783 45.4597 28.1621 49.9938C28.0586 50.0328 27.9415 50.0328 27.838 49.9938C15.8218 45.4597 8.16676 36.0765 8.16675 23.3333L8.16675 11.6105C8.16675 11.3598 8.32764 11.1367 8.57012 11.058L27.8201 4.81477Z" fill="#E0E0E0"/>
</g>
</g>
</svg>
